<svg xmlns:xlink="http://www.w3.org/1999/xlink" xmlns="http://www.w3.org/2000/svg" width="460.8pt" height="345.6pt" viewBox="0 0 460.8 345.6" version="1.1">
 <metadata>
  <rdf:RDF xmlns:dc="http://purl.org/dc/elements/1.1/" xmlns:cc="http://creativecommons.org/ns#" xmlns:rdf="http://www.w3.org/1999/02/22-rdf-syntax-ns#">
   <cc:Work>
    <dc:type rdf:resource="http://purl.org/dc/dcmitype/StillImage"/>
    <dc:date>2025-06-11T08:26:04.957364</dc:date>
    <dc:format>image/svg+xml</dc:format>
    <dc:creator>
     <cc:Agent>
      <dc:title>Matplotlib v3.10.3, https://matplotlib.org/</dc:title>
     </cc:Agent>
    </dc:creator>
   </cc:Work>
  </rdf:RDF>
 </metadata>
 <defs>
  <style type="text/css">*{stroke-linejoin: round; stroke-linecap: butt}</style>
 </defs>
 <g id="figure_1">
  <g id="patch_1">
   <path d="M 0 345.6  L 460.8 345.6  L 460.8 0  L 0 0  z " style="fill: #ffffff; stroke: #ffffff; stroke-linejoin: miter"/>
  </g>
  <g id="axes_1">
   <g id="patch_2">
    <path d="M 44.205688 290.914986  L 456.192 290.914986  L 456.192 21.991125  L 44.205688 21.991125  z " style="fill: #ffffff"/>
   </g>
   <g id="matplotlib.axis_1">
    <g id="xtick_1">
     <g id="line2d_1">
      <path d="M 121.453121 290.914986  L 121.453121 21.991125  " clip-path="url(#p36a4428dd9)" style="fill: none; stroke: #e5e5e5; stroke-linecap: square"/>
     </g>
     <g id="line2d_2">
      <path d="M 121.453121 290.914986  " style="fill: none; stroke: #333333; stroke-width: 1.5; stroke-linecap: square"/>
      <defs>
       <path id="m9ff1428a41" d="M 0 0  L 0 2.75  " style="stroke: #333333"/>
      </defs>
      <g>
       <use xlink:href="#m9ff1428a41" x="121.453121" y="290.914986" style="fill: #333333; stroke: #333333"/>
      </g>
     </g>
     <g id="text_1">
      <!-- Logistic Regression -->
      <g style="fill: #4d4d4d" transform="translate(39.4471 323.970297) rotate(-15) scale(0.088 -0.088)">
       <defs>
        <path id="DejaVuSans-4c" d="M 628 4666  L 1259 4666  L 1259 531  L 3531 531  L 3531 0  L 628 0  L 628 4666  z " transform="scale(0.015625)"/>
        <path id="DejaVuSans-6f" d="M 1959 3097  Q 1497 3097 1228 2736  Q 959 2375 959 1747  Q 959 1119 1226 758  Q 1494 397 1959 397  Q 2419 397 2687 759  Q 2956 1122 2956 1747  Q 2956 2369 2687 2733  Q 2419 3097 1959 3097  z M 1959 3584  Q 2709 3584 3137 3096  Q 3566 2609 3566 1747  Q 3566 888 3137 398  Q 2709 -91 1959 -91  Q 1206 -91 779 398  Q 353 888 353 1747  Q 353 2609 779 3096  Q 1206 3584 1959 3584  z " transform="scale(0.015625)"/>
        <path id="DejaVuSans-67" d="M 2906 1791  Q 2906 2416 2648 2759  Q 2391 3103 1925 3103  Q 1463 3103 1205 2759  Q 947 2416 947 1791  Q 947 1169 1205 825  Q 1463 481 1925 481  Q 2391 481 2648 825  Q 2906 1169 2906 1791  z M 3481 434  Q 3481 -459 3084 -895  Q 2688 -1331 1869 -1331  Q 1566 -1331 1297 -1286  Q 1028 -1241 775 -1147  L 775 -588  Q 1028 -725 1275 -790  Q 1522 -856 1778 -856  Q 2344 -856 2625 -561  Q 2906 -266 2906 331  L 2906 616  Q 2728 306 2450 153  Q 2172 0 1784 0  Q 1141 0 747 490  Q 353 981 353 1791  Q 353 2603 747 3093  Q 1141 3584 1784 3584  Q 2172 3584 2450 3431  Q 2728 3278 2906 2969  L 2906 3500  L 3481 3500  L 3481 434  z " transform="scale(0.015625)"/>
        <path id="DejaVuSans-69" d="M 603 3500  L 1178 3500  L 1178 0  L 603 0  L 603 3500  z M 603 4863  L 1178 4863  L 1178 4134  L 603 4134  L 603 4863  z " transform="scale(0.015625)"/>
        <path id="DejaVuSans-73" d="M 2834 3397  L 2834 2853  Q 2591 2978 2328 3040  Q 2066 3103 1784 3103  Q 1356 3103 1142 2972  Q 928 2841 928 2578  Q 928 2378 1081 2264  Q 1234 2150 1697 2047  L 1894 2003  Q 2506 1872 2764 1633  Q 3022 1394 3022 966  Q 3022 478 2636 193  Q 2250 -91 1575 -91  Q 1294 -91 989 -36  Q 684 19 347 128  L 347 722  Q 666 556 975 473  Q 1284 391 1588 391  Q 1994 391 2212 530  Q 2431 669 2431 922  Q 2431 1156 2273 1281  Q 2116 1406 1581 1522  L 1381 1569  Q 847 1681 609 1914  Q 372 2147 372 2553  Q 372 3047 722 3315  Q 1072 3584 1716 3584  Q 2034 3584 2315 3537  Q 2597 3491 2834 3397  z " transform="scale(0.015625)"/>
        <path id="DejaVuSans-74" d="M 1172 4494  L 1172 3500  L 2356 3500  L 2356 3053  L 1172 3053  L 1172 1153  Q 1172 725 1289 603  Q 1406 481 1766 481  L 2356 481  L 2356 0  L 1766 0  Q 1100 0 847 248  Q 594 497 594 1153  L 594 3053  L 172 3053  L 172 3500  L 594 3500  L 594 4494  L 1172 4494  z " transform="scale(0.015625)"/>
        <path id="DejaVuSans-63" d="M 3122 3366  L 3122 2828  Q 2878 2963 2633 3030  Q 2388 3097 2138 3097  Q 1578 3097 1268 2742  Q 959 2388 959 1747  Q 959 1106 1268 751  Q 1578 397 2138 397  Q 2388 397 2633 464  Q 2878 531 3122 666  L 3122 134  Q 2881 22 2623 -34  Q 2366 -91 2075 -91  Q 1284 -91 818 406  Q 353 903 353 1747  Q 353 2603 823 3093  Q 1294 3584 2113 3584  Q 2378 3584 2631 3529  Q 2884 3475 3122 3366  z " transform="scale(0.015625)"/>
        <path id="DejaVuSans-20" transform="scale(0.015625)"/>
        <path id="DejaVuSans-52" d="M 2841 2188  Q 3044 2119 3236 1894  Q 3428 1669 3622 1275  L 4263 0  L 3584 0  L 2988 1197  Q 2756 1666 2539 1819  Q 2322 1972 1947 1972  L 1259 1972  L 1259 0  L 628 0  L 628 4666  L 2053 4666  Q 2853 4666 3247 4331  Q 3641 3997 3641 3322  Q 3641 2881 3436 2590  Q 3231 2300 2841 2188  z M 1259 4147  L 1259 2491  L 2053 2491  Q 2509 2491 2742 2702  Q 2975 2913 2975 3322  Q 2975 3731 2742 3939  Q 2509 4147 2053 4147  L 1259 4147  z " transform="scale(0.015625)"/>
        <path id="DejaVuSans-65" d="M 3597 1894  L 3597 1613  L 953 1613  Q 991 1019 1311 708  Q 1631 397 2203 397  Q 2534 397 2845 478  Q 3156 559 3463 722  L 3463 178  Q 3153 47 2828 -22  Q 2503 -91 2169 -91  Q 1331 -91 842 396  Q 353 884 353 1716  Q 353 2575 817 3079  Q 1281 3584 2069 3584  Q 2775 3584 3186 3129  Q 3597 2675 3597 1894  z M 3022 2063  Q 3016 2534 2758 2815  Q 2500 3097 2075 3097  Q 1594 3097 1305 2825  Q 1016 2553 972 2059  L 3022 2063  z " transform="scale(0.015625)"/>
        <path id="DejaVuSans-72" d="M 2631 2963  Q 2534 3019 2420 3045  Q 2306 3072 2169 3072  Q 1681 3072 1420 2755  Q 1159 2438 1159 1844  L 1159 0  L 581 0  L 581 3500  L 1159 3500  L 1159 2956  Q 1341 3275 1631 3429  Q 1922 3584 2338 3584  Q 2397 3584 2469 3576  Q 2541 3569 2628 3553  L 2631 2963  z " transform="scale(0.015625)"/>
        <path id="DejaVuSans-6e" d="M 3513 2113  L 3513 0  L 2938 0  L 2938 2094  Q 2938 2591 2744 2837  Q 2550 3084 2163 3084  Q 1697 3084 1428 2787  Q 1159 2491 1159 1978  L 1159 0  L 581 0  L 581 3500  L 1159 3500  L 1159 2956  Q 1366 3272 1645 3428  Q 1925 3584 2291 3584  Q 2894 3584 3203 3211  Q 3513 2838 3513 2113  z " transform="scale(0.015625)"/>
       </defs>
       <use xlink:href="#DejaVuSans-4c"/>
       <use xlink:href="#DejaVuSans-6f" transform="translate(53.962891 0)"/>
       <use xlink:href="#DejaVuSans-67" transform="translate(115.144531 0)"/>
       <use xlink:href="#DejaVuSans-69" transform="translate(178.621094 0)"/>
       <use xlink:href="#DejaVuSans-73" transform="translate(206.404297 0)"/>
       <use xlink:href="#DejaVuSans-74" transform="translate(258.503906 0)"/>
       <use xlink:href="#DejaVuSans-69" transform="translate(297.712891 0)"/>
       <use xlink:href="#DejaVuSans-63" transform="translate(325.496094 0)"/>
       <use xlink:href="#DejaVuSans-20" transform="translate(380.476562 0)"/>
       <use xlink:href="#DejaVuSans-52" transform="translate(412.263672 0)"/>
       <use xlink:href="#DejaVuSans-65" transform="translate(477.246094 0)"/>
       <use xlink:href="#DejaVuSans-67" transform="translate(538.769531 0)"/>
       <use xlink:href="#DejaVuSans-72" transform="translate(602.246094 0)"/>
       <use xlink:href="#DejaVuSans-65" transform="translate(641.109375 0)"/>
       <use xlink:href="#DejaVuSans-73" transform="translate(702.632812 0)"/>
       <use xlink:href="#DejaVuSans-73" transform="translate(754.732422 0)"/>
       <use xlink:href="#DejaVuSans-69" transform="translate(806.832031 0)"/>
       <use xlink:href="#DejaVuSans-6f" transform="translate(834.615234 0)"/>
       <use xlink:href="#DejaVuSans-6e" transform="translate(895.796875 0)"/>
      </g>
     </g>
    </g>
    <g id="xtick_2">
     <g id="line2d_3">
      <path d="M 250.198844 290.914986  L 250.198844 21.991125  " clip-path="url(#p36a4428dd9)" style="fill: none; stroke: #e5e5e5; stroke-linecap: square"/>
     </g>
     <g id="line2d_4">
      <path d="M 250.198844 290.914986  " style="fill: none; stroke: #333333; stroke-width: 1.5; stroke-linecap: square"/>
      <g>
       <use xlink:href="#m9ff1428a41" x="250.198844" y="290.914986" style="fill: #333333; stroke: #333333"/>
      </g>
     </g>
     <g id="text_2">
      <!-- Random Forest -->
      <g style="fill: #4d4d4d" transform="translate(185.760236 319.263123) rotate(-15) scale(0.088 -0.088)">
       <defs>
        <path id="DejaVuSans-61" d="M 2194 1759  Q 1497 1759 1228 1600  Q 959 1441 959 1056  Q 959 750 1161 570  Q 1363 391 1709 391  Q 2188 391 2477 730  Q 2766 1069 2766 1631  L 2766 1759  L 2194 1759  z M 3341 1997  L 3341 0  L 2766 0  L 2766 531  Q 2569 213 2275 61  Q 1981 -91 1556 -91  Q 1019 -91 701 211  Q 384 513 384 1019  Q 384 1609 779 1909  Q 1175 2209 1959 2209  L 2766 2209  L 2766 2266  Q 2766 2663 2505 2880  Q 2244 3097 1772 3097  Q 1472 3097 1187 3025  Q 903 2953 641 2809  L 641 3341  Q 956 3463 1253 3523  Q 1550 3584 1831 3584  Q 2591 3584 2966 3190  Q 3341 2797 3341 1997  z " transform="scale(0.015625)"/>
        <path id="DejaVuSans-64" d="M 2906 2969  L 2906 4863  L 3481 4863  L 3481 0  L 2906 0  L 2906 525  Q 2725 213 2448 61  Q 2172 -91 1784 -91  Q 1150 -91 751 415  Q 353 922 353 1747  Q 353 2572 751 3078  Q 1150 3584 1784 3584  Q 2172 3584 2448 3432  Q 2725 3281 2906 2969  z M 947 1747  Q 947 1113 1208 752  Q 1469 391 1925 391  Q 2381 391 2643 752  Q 2906 1113 2906 1747  Q 2906 2381 2643 2742  Q 2381 3103 1925 3103  Q 1469 3103 1208 2742  Q 947 2381 947 1747  z " transform="scale(0.015625)"/>
        <path id="DejaVuSans-6d" d="M 3328 2828  Q 3544 3216 3844 3400  Q 4144 3584 4550 3584  Q 5097 3584 5394 3201  Q 5691 2819 5691 2113  L 5691 0  L 5113 0  L 5113 2094  Q 5113 2597 4934 2840  Q 4756 3084 4391 3084  Q 3944 3084 3684 2787  Q 3425 2491 3425 1978  L 3425 0  L 2847 0  L 2847 2094  Q 2847 2600 2669 2842  Q 2491 3084 2119 3084  Q 1678 3084 1418 2786  Q 1159 2488 1159 1978  L 1159 0  L 581 0  L 581 3500  L 1159 3500  L 1159 2956  Q 1356 3278 1631 3431  Q 1906 3584 2284 3584  Q 2666 3584 2933 3390  Q 3200 3197 3328 2828  z " transform="scale(0.015625)"/>
        <path id="DejaVuSans-46" d="M 628 4666  L 3309 4666  L 3309 4134  L 1259 4134  L 1259 2759  L 3109 2759  L 3109 2228  L 1259 2228  L 1259 0  L 628 0  L 628 4666  z " transform="scale(0.015625)"/>
       </defs>
       <use xlink:href="#DejaVuSans-52"/>
       <use xlink:href="#DejaVuSans-61" transform="translate(67.232422 0)"/>
       <use xlink:href="#DejaVuSans-6e" transform="translate(128.511719 0)"/>
       <use xlink:href="#DejaVuSans-64" transform="translate(191.890625 0)"/>
       <use xlink:href="#DejaVuSans-6f" transform="translate(255.367188 0)"/>
       <use xlink:href="#DejaVuSans-6d" transform="translate(316.548828 0)"/>
       <use xlink:href="#DejaVuSans-20" transform="translate(413.960938 0)"/>
       <use xlink:href="#DejaVuSans-46" transform="translate(445.748047 0)"/>
       <use xlink:href="#DejaVuSans-6f" transform="translate(499.642578 0)"/>
       <use xlink:href="#DejaVuSans-72" transform="translate(560.824219 0)"/>
       <use xlink:href="#DejaVuSans-65" transform="translate(599.6875 0)"/>
       <use xlink:href="#DejaVuSans-73" transform="translate(661.210938 0)"/>
       <use xlink:href="#DejaVuSans-74" transform="translate(713.310547 0)"/>
      </g>
     </g>
    </g>
    <g id="xtick_3">
     <g id="line2d_5">
      <path d="M 378.944566 290.914986  L 378.944566 21.991125  " clip-path="url(#p36a4428dd9)" style="fill: none; stroke: #e5e5e5; stroke-linecap: square"/>
     </g>
     <g id="line2d_6">
      <path d="M 378.944566 290.914986  " style="fill: none; stroke: #333333; stroke-width: 1.5; stroke-linecap: square"/>
      <g>
       <use xlink:href="#m9ff1428a41" x="378.944566" y="290.914986" style="fill: #333333; stroke: #333333"/>
      </g>
     </g>
     <g id="text_3">
      <!-- XGBoost -->
      <g style="fill: #4d4d4d" transform="translate(342.067686 311.877981) rotate(-15) scale(0.088 -0.088)">
       <defs>
        <path id="DejaVuSans-58" d="M 403 4666  L 1081 4666  L 2241 2931  L 3406 4666  L 4084 4666  L 2584 2425  L 4184 0  L 3506 0  L 2194 1984  L 872 0  L 191 0  L 1856 2491  L 403 4666  z " transform="scale(0.015625)"/>
        <path id="DejaVuSans-47" d="M 3809 666  L 3809 1919  L 2778 1919  L 2778 2438  L 4434 2438  L 4434 434  Q 4069 175 3628 42  Q 3188 -91 2688 -91  Q 1594 -91 976 548  Q 359 1188 359 2328  Q 359 3472 976 4111  Q 1594 4750 2688 4750  Q 3144 4750 3555 4637  Q 3966 4525 4313 4306  L 4313 3634  Q 3963 3931 3569 4081  Q 3175 4231 2741 4231  Q 1884 4231 1454 3753  Q 1025 3275 1025 2328  Q 1025 1384 1454 906  Q 1884 428 2741 428  Q 3075 428 3337 486  Q 3600 544 3809 666  z " transform="scale(0.015625)"/>
        <path id="DejaVuSans-42" d="M 1259 2228  L 1259 519  L 2272 519  Q 2781 519 3026 730  Q 3272 941 3272 1375  Q 3272 1813 3026 2020  Q 2781 2228 2272 2228  L 1259 2228  z M 1259 4147  L 1259 2741  L 2194 2741  Q 2656 2741 2882 2914  Q 3109 3088 3109 3444  Q 3109 3797 2882 3972  Q 2656 4147 2194 4147  L 1259 4147  z M 628 4666  L 2241 4666  Q 2963 4666 3353 4366  Q 3744 4066 3744 3513  Q 3744 3084 3544 2831  Q 3344 2578 2956 2516  Q 3422 2416 3680 2098  Q 3938 1781 3938 1306  Q 3938 681 3513 340  Q 3088 0 2303 0  L 628 0  L 628 4666  z " transform="scale(0.015625)"/>
       </defs>
       <use xlink:href="#DejaVuSans-58"/>
       <use xlink:href="#DejaVuSans-47" transform="translate(68.505859 0)"/>
       <use xlink:href="#DejaVuSans-42" transform="translate(145.996094 0)"/>
       <use xlink:href="#DejaVuSans-6f" transform="translate(214.599609 0)"/>
       <use xlink:href="#DejaVuSans-6f" transform="translate(275.78125 0)"/>
       <use xlink:href="#DejaVuSans-73" transform="translate(336.962891 0)"/>
       <use xlink:href="#DejaVuSans-74" transform="translate(389.0625 0)"/>
      </g>
     </g>
    </g>
   </g>
   <g id="matplotlib.axis_2">
    <g id="ytick_1">
     <g id="line2d_7">
      <path d="M 44.205688 255.814735  L 456.192 255.814735  " clip-path="url(#p36a4428dd9)" style="fill: none; stroke: #e5e5e5; stroke-linecap: square"/>
     </g>
     <g id="line2d_8">
      <path d="M 44.205688 255.814735  " style="fill: none; stroke: #333333; stroke-width: 1.5; stroke-linecap: square"/>
      <defs>
       <path id="ma4458e9664" d="M 0 0  L -2.75 0  " style="stroke: #333333"/>
      </defs>
      <g>
       <use xlink:href="#ma4458e9664" x="44.205688" y="255.814735" style="fill: #333333; stroke: #333333"/>
      </g>
     </g>
     <g id="text_4">
      <!-- 0.80 -->
      <g style="fill: #4d4d4d" transform="translate(19.861938 259.158047) scale(0.088 -0.088)">
       <defs>
        <path id="DejaVuSans-30" d="M 2034 4250  Q 1547 4250 1301 3770  Q 1056 3291 1056 2328  Q 1056 1369 1301 889  Q 1547 409 2034 409  Q 2525 409 2770 889  Q 3016 1369 3016 2328  Q 3016 3291 2770 3770  Q 2525 4250 2034 4250  z M 2034 4750  Q 2819 4750 3233 4129  Q 3647 3509 3647 2328  Q 3647 1150 3233 529  Q 2819 -91 2034 -91  Q 1250 -91 836 529  Q 422 1150 422 2328  Q 422 3509 836 4129  Q 1250 4750 2034 4750  z " transform="scale(0.015625)"/>
        <path id="DejaVuSans-2e" d="M 684 794  L 1344 794  L 1344 0  L 684 0  L 684 794  z " transform="scale(0.015625)"/>
        <path id="DejaVuSans-38" d="M 2034 2216  Q 1584 2216 1326 1975  Q 1069 1734 1069 1313  Q 1069 891 1326 650  Q 1584 409 2034 409  Q 2484 409 2743 651  Q 3003 894 3003 1313  Q 3003 1734 2745 1975  Q 2488 2216 2034 2216  z M 1403 2484  Q 997 2584 770 2862  Q 544 3141 544 3541  Q 544 4100 942 4425  Q 1341 4750 2034 4750  Q 2731 4750 3128 4425  Q 3525 4100 3525 3541  Q 3525 3141 3298 2862  Q 3072 2584 2669 2484  Q 3125 2378 3379 2068  Q 3634 1759 3634 1313  Q 3634 634 3220 271  Q 2806 -91 2034 -91  Q 1263 -91 848 271  Q 434 634 434 1313  Q 434 1759 690 2068  Q 947 2378 1403 2484  z M 1172 3481  Q 1172 3119 1398 2916  Q 1625 2713 2034 2713  Q 2441 2713 2670 2916  Q 2900 3119 2900 3481  Q 2900 3844 2670 4047  Q 2441 4250 2034 4250  Q 1625 4250 1398 4047  Q 1172 3844 1172 3481  z " transform="scale(0.015625)"/>
       </defs>
       <use xlink:href="#DejaVuSans-30"/>
       <use xlink:href="#DejaVuSans-2e" transform="translate(63.623047 0)"/>
       <use xlink:href="#DejaVuSans-38" transform="translate(95.410156 0)"/>
       <use xlink:href="#DejaVuSans-30" transform="translate(159.033203 0)"/>
      </g>
     </g>
    </g>
    <g id="ytick_2">
     <g id="line2d_9">
      <path d="M 44.205688 195.280156  L 456.192 195.280156  " clip-path="url(#p36a4428dd9)" style="fill: none; stroke: #e5e5e5; stroke-linecap: square"/>
     </g>
     <g id="line2d_10">
      <path d="M 44.205688 195.280156  " style="fill: none; stroke: #333333; stroke-width: 1.5; stroke-linecap: square"/>
      <g>
       <use xlink:href="#ma4458e9664" x="44.205688" y="195.280156" style="fill: #333333; stroke: #333333"/>
      </g>
     </g>
     <g id="text_5">
      <!-- 0.82 -->
      <g style="fill: #4d4d4d" transform="translate(19.861938 198.623468) scale(0.088 -0.088)">
       <defs>
        <path id="DejaVuSans-32" d="M 1228 531  L 3431 531  L 3431 0  L 469 0  L 469 531  Q 828 903 1448 1529  Q 2069 2156 2228 2338  Q 2531 2678 2651 2914  Q 2772 3150 2772 3378  Q 2772 3750 2511 3984  Q 2250 4219 1831 4219  Q 1534 4219 1204 4116  Q 875 4013 500 3803  L 500 4441  Q 881 4594 1212 4672  Q 1544 4750 1819 4750  Q 2544 4750 2975 4387  Q 3406 4025 3406 3419  Q 3406 3131 3298 2873  Q 3191 2616 2906 2266  Q 2828 2175 2409 1742  Q 1991 1309 1228 531  z " transform="scale(0.015625)"/>
       </defs>
       <use xlink:href="#DejaVuSans-30"/>
       <use xlink:href="#DejaVuSans-2e" transform="translate(63.623047 0)"/>
       <use xlink:href="#DejaVuSans-38" transform="translate(95.410156 0)"/>
       <use xlink:href="#DejaVuSans-32" transform="translate(159.033203 0)"/>
      </g>
     </g>
    </g>
    <g id="ytick_3">
     <g id="line2d_11">
      <path d="M 44.205688 134.745577  L 456.192 134.745577  " clip-path="url(#p36a4428dd9)" style="fill: none; stroke: #e5e5e5; stroke-linecap: square"/>
     </g>
     <g id="line2d_12">
      <path d="M 44.205688 134.745577  " style="fill: none; stroke: #333333; stroke-width: 1.5; stroke-linecap: square"/>
      <g>
       <use xlink:href="#ma4458e9664" x="44.205688" y="134.745577" style="fill: #333333; stroke: #333333"/>
      </g>
     </g>
     <g id="text_6">
      <!-- 0.84 -->
      <g style="fill: #4d4d4d" transform="translate(19.861938 138.088889) scale(0.088 -0.088)">
       <defs>
        <path id="DejaVuSans-34" d="M 2419 4116  L 825 1625  L 2419 1625  L 2419 4116  z M 2253 4666  L 3047 4666  L 3047 1625  L 3713 1625  L 3713 1100  L 3047 1100  L 3047 0  L 2419 0  L 2419 1100  L 313 1100  L 313 1709  L 2253 4666  z " transform="scale(0.015625)"/>
       </defs>
       <use xlink:href="#DejaVuSans-30"/>
       <use xlink:href="#DejaVuSans-2e" transform="translate(63.623047 0)"/>
       <use xlink:href="#DejaVuSans-38" transform="translate(95.410156 0)"/>
       <use xlink:href="#DejaVuSans-34" transform="translate(159.033203 0)"/>
      </g>
     </g>
    </g>
    <g id="ytick_4">
     <g id="line2d_13">
      <path d="M 44.205688 74.210998  L 456.192 74.210998  " clip-path="url(#p36a4428dd9)" style="fill: none; stroke: #e5e5e5; stroke-linecap: square"/>
     </g>
     <g id="line2d_14">
      <path d="M 44.205688 74.210998  " style="fill: none; stroke: #333333; stroke-width: 1.5; stroke-linecap: square"/>
      <g>
       <use xlink:href="#ma4458e9664" x="44.205688" y="74.210998" style="fill: #333333; stroke: #333333"/>
      </g>
     </g>
     <g id="text_7">
      <!-- 0.86 -->
      <g style="fill: #4d4d4d" transform="translate(19.861938 77.55431) scale(0.088 -0.088)">
       <defs>
        <path id="DejaVuSans-36" d="M 2113 2584  Q 1688 2584 1439 2293  Q 1191 2003 1191 1497  Q 1191 994 1439 701  Q 1688 409 2113 409  Q 2538 409 2786 701  Q 3034 994 3034 1497  Q 3034 2003 2786 2293  Q 2538 2584 2113 2584  z M 3366 4563  L 3366 3988  Q 3128 4100 2886 4159  Q 2644 4219 2406 4219  Q 1781 4219 1451 3797  Q 1122 3375 1075 2522  Q 1259 2794 1537 2939  Q 1816 3084 2150 3084  Q 2853 3084 3261 2657  Q 3669 2231 3669 1497  Q 3669 778 3244 343  Q 2819 -91 2113 -91  Q 1303 -91 875 529  Q 447 1150 447 2328  Q 447 3434 972 4092  Q 1497 4750 2381 4750  Q 2619 4750 2861 4703  Q 3103 4656 3366 4563  z " transform="scale(0.015625)"/>
       </defs>
       <use xlink:href="#DejaVuSans-30"/>
       <use xlink:href="#DejaVuSans-2e" transform="translate(63.623047 0)"/>
       <use xlink:href="#DejaVuSans-38" transform="translate(95.410156 0)"/>
       <use xlink:href="#DejaVuSans-36" transform="translate(159.033203 0)"/>
      </g>
     </g>
    </g>
    <g id="ytick_5">
     <g id="line2d_15">
      <path d="M 44.205688 286.082024  L 456.192 286.082024  " clip-path="url(#p36a4428dd9)" style="fill: none; stroke: #fafafa; stroke-width: 0.5; stroke-linecap: square"/>
     </g>
    </g>
    <g id="ytick_6">
     <g id="line2d_16">
      <path d="M 44.205688 225.547445  L 456.192 225.547445  " clip-path="url(#p36a4428dd9)" style="fill: none; stroke: #fafafa; stroke-width: 0.5; stroke-linecap: square"/>
     </g>
    </g>
    <g id="ytick_7">
     <g id="line2d_17">
      <path d="M 44.205688 165.012866  L 456.192 165.012866  " clip-path="url(#p36a4428dd9)" style="fill: none; stroke: #fafafa; stroke-width: 0.5; stroke-linecap: square"/>
     </g>
    </g>
    <g id="ytick_8">
     <g id="line2d_18">
      <path d="M 44.205688 104.478287  L 456.192 104.478287  " clip-path="url(#p36a4428dd9)" style="fill: none; stroke: #fafafa; stroke-width: 0.5; stroke-linecap: square"/>
     </g>
    </g>
    <g id="ytick_9">
     <g id="line2d_19">
      <path d="M 44.205688 43.943708  L 456.192 43.943708  " clip-path="url(#p36a4428dd9)" style="fill: none; stroke: #fafafa; stroke-width: 0.5; stroke-linecap: square"/>
     </g>
    </g>
   </g>
   <g id="LineCollection_1">
    <path d="M 108.578549 278.691174  L 134.327693 278.691174  " clip-path="url(#p36a4428dd9)" style="fill: none; stroke: #000000; stroke-width: 0.886227"/>
    <path d="M 108.578549 34.214937  L 134.327693 34.214937  " clip-path="url(#p36a4428dd9)" style="fill: none; stroke: #000000; stroke-width: 0.886227"/>
    <path d="M 121.453121 34.214937  L 121.453121 278.691174  " clip-path="url(#p36a4428dd9)" style="fill: none; stroke: #000000; stroke-width: 0.886227"/>
   </g>
   <g id="LineCollection_2">
    <path d="M 237.324271 217.10076  L 263.073416 217.10076  " clip-path="url(#p36a4428dd9)" style="fill: none; stroke: #000000; stroke-width: 0.886227"/>
    <path d="M 237.324271 64.884449  L 263.073416 64.884449  " clip-path="url(#p36a4428dd9)" style="fill: none; stroke: #000000; stroke-width: 0.886227"/>
    <path d="M 250.198844 64.884449  L 250.198844 217.10076  " clip-path="url(#p36a4428dd9)" style="fill: none; stroke: #000000; stroke-width: 0.886227"/>
   </g>
   <g id="LineCollection_3">
    <path d="M 366.069994 224.139664  L 391.819139 224.139664  " clip-path="url(#p36a4428dd9)" style="fill: none; stroke: #000000; stroke-width: 0.886227"/>
    <path d="M 366.069994 48.627932  L 391.819139 48.627932  " clip-path="url(#p36a4428dd9)" style="fill: none; stroke: #000000; stroke-width: 0.886227"/>
    <path d="M 378.944566 48.627932  L 378.944566 224.139664  " clip-path="url(#p36a4428dd9)" style="fill: none; stroke: #000000; stroke-width: 0.886227"/>
   </g>
   <g id="PathCollection_1">
    <path d="M 121.453121 131.54386  C 122.510757 131.54386 123.525217 131.123657 124.273078 130.375796  C 125.020939 129.627934 125.441142 128.613474 125.441142 127.555839  C 125.441142 126.498203 125.020939 125.483743 124.273078 124.735882  C 123.525217 123.988021 122.510757 123.567818 121.453121 123.567818  C 120.395486 123.567818 119.381026 123.988021 118.633164 124.735882  C 117.885303 125.483743 117.4651 126.498203 117.4651 127.555839  C 117.4651 128.613474 117.885303 129.627934 118.633164 130.375796  C 119.381026 131.123657 120.395486 131.54386 121.453121 131.54386  z " clip-path="url(#p36a4428dd9)" style="stroke: #000000; stroke-width: 0.886227"/>
    <path d="M 250.198844 148.730518  C 251.256479 148.730518 252.270939 148.310315 253.018801 147.562454  C 253.766662 146.814593 254.186865 145.800133 254.186865 144.742497  C 254.186865 143.684862 253.766662 142.670402 253.018801 141.92254  C 252.270939 141.174679 251.256479 140.754476 250.198844 140.754476  C 249.141208 140.754476 248.126748 141.174679 247.378887 141.92254  C 246.631026 142.670402 246.210823 143.684862 246.210823 144.742497  C 246.210823 145.800133 246.631026 146.814593 247.378887 147.562454  C 248.126748 148.310315 249.141208 148.730518 250.198844 148.730518  z " clip-path="url(#p36a4428dd9)" style="stroke: #000000; stroke-width: 0.886227"/>
    <path d="M 378.944566 152.551638  C 380.002202 152.551638 381.016662 152.131435 381.764523 151.383574  C 382.512385 150.635712 382.932588 149.621252 382.932588 148.563617  C 382.932588 147.505981 382.512385 146.491521 381.764523 145.74366  C 381.016662 144.995799 380.002202 144.575596 378.944566 144.575596  C 377.886931 144.575596 376.872471 144.995799 376.12461 145.74366  C 375.376748 146.491521 374.956545 147.505981 374.956545 148.563617  C 374.956545 149.621252 375.376748 150.635712 376.12461 151.383574  C 376.872471 152.131435 377.886931 152.551638 378.944566 152.551638  z " clip-path="url(#p36a4428dd9)" style="stroke: #000000; stroke-width: 0.886227"/>
   </g>
  </g>
  <g id="patch_3">
   <path d="M 44.205688 290.914986  L 456.192 290.914986  L 456.192 21.991125  L 44.205688 21.991125  L 44.205688 290.914986  z " style="fill: none; stroke: #7f7f7f; stroke-linejoin: miter"/>
  </g>
  <g id="text_8">
   <!-- Model CV Performance (mean ± range) -->
   <g transform="translate(120.360344 14.637938) scale(0.132 -0.132)">
    <defs>
     <path id="DejaVuSans-4d" d="M 628 4666  L 1569 4666  L 2759 1491  L 3956 4666  L 4897 4666  L 4897 0  L 4281 0  L 4281 4097  L 3078 897  L 2444 897  L 1241 4097  L 1241 0  L 628 0  L 628 4666  z " transform="scale(0.015625)"/>
     <path id="DejaVuSans-6c" d="M 603 4863  L 1178 4863  L 1178 0  L 603 0  L 603 4863  z " transform="scale(0.015625)"/>
     <path id="DejaVuSans-43" d="M 4122 4306  L 4122 3641  Q 3803 3938 3442 4084  Q 3081 4231 2675 4231  Q 1875 4231 1450 3742  Q 1025 3253 1025 2328  Q 1025 1406 1450 917  Q 1875 428 2675 428  Q 3081 428 3442 575  Q 3803 722 4122 1019  L 4122 359  Q 3791 134 3420 21  Q 3050 -91 2638 -91  Q 1578 -91 968 557  Q 359 1206 359 2328  Q 359 3453 968 4101  Q 1578 4750 2638 4750  Q 3056 4750 3426 4639  Q 3797 4528 4122 4306  z " transform="scale(0.015625)"/>
     <path id="DejaVuSans-56" d="M 1831 0  L 50 4666  L 709 4666  L 2188 738  L 3669 4666  L 4325 4666  L 2547 0  L 1831 0  z " transform="scale(0.015625)"/>
     <path id="DejaVuSans-50" d="M 1259 4147  L 1259 2394  L 2053 2394  Q 2494 2394 2734 2622  Q 2975 2850 2975 3272  Q 2975 3691 2734 3919  Q 2494 4147 2053 4147  L 1259 4147  z M 628 4666  L 2053 4666  Q 2838 4666 3239 4311  Q 3641 3956 3641 3272  Q 3641 2581 3239 2228  Q 2838 1875 2053 1875  L 1259 1875  L 1259 0  L 628 0  L 628 4666  z " transform="scale(0.015625)"/>
     <path id="DejaVuSans-66" d="M 2375 4863  L 2375 4384  L 1825 4384  Q 1516 4384 1395 4259  Q 1275 4134 1275 3809  L 1275 3500  L 2222 3500  L 2222 3053  L 1275 3053  L 1275 0  L 697 0  L 697 3053  L 147 3053  L 147 3500  L 697 3500  L 697 3744  Q 697 4328 969 4595  Q 1241 4863 1831 4863  L 2375 4863  z " transform="scale(0.015625)"/>
     <path id="DejaVuSans-28" d="M 1984 4856  Q 1566 4138 1362 3434  Q 1159 2731 1159 2009  Q 1159 1288 1364 580  Q 1569 -128 1984 -844  L 1484 -844  Q 1016 -109 783 600  Q 550 1309 550 2009  Q 550 2706 781 3412  Q 1013 4119 1484 4856  L 1984 4856  z " transform="scale(0.015625)"/>
     <path id="DejaVuSans-b1" d="M 2944 4013  L 2944 2803  L 4684 2803  L 4684 2272  L 2944 2272  L 2944 1063  L 2419 1063  L 2419 2272  L 678 2272  L 678 2803  L 2419 2803  L 2419 4013  L 2944 4013  z M 678 531  L 4684 531  L 4684 0  L 678 0  L 678 531  z " transform="scale(0.015625)"/>
     <path id="DejaVuSans-29" d="M 513 4856  L 1013 4856  Q 1481 4119 1714 3412  Q 1947 2706 1947 2009  Q 1947 1309 1714 600  Q 1481 -109 1013 -844  L 513 -844  Q 928 -128 1133 580  Q 1338 1288 1338 2009  Q 1338 2731 1133 3434  Q 928 4138 513 4856  z " transform="scale(0.015625)"/>
    </defs>
    <use xlink:href="#DejaVuSans-4d"/>
    <use xlink:href="#DejaVuSans-6f" transform="translate(86.279297 0)"/>
    <use xlink:href="#DejaVuSans-64" transform="translate(147.460938 0)"/>
    <use xlink:href="#DejaVuSans-65" transform="translate(210.9375 0)"/>
    <use xlink:href="#DejaVuSans-6c" transform="translate(272.460938 0)"/>
    <use xlink:href="#DejaVuSans-20" transform="translate(300.244141 0)"/>
    <use xlink:href="#DejaVuSans-43" transform="translate(332.03125 0)"/>
    <use xlink:href="#DejaVuSans-56" transform="translate(401.855469 0)"/>
    <use xlink:href="#DejaVuSans-20" transform="translate(470.263672 0)"/>
    <use xlink:href="#DejaVuSans-50" transform="translate(502.050781 0)"/>
    <use xlink:href="#DejaVuSans-65" transform="translate(558.728516 0)"/>
    <use xlink:href="#DejaVuSans-72" transform="translate(620.251953 0)"/>
    <use xlink:href="#DejaVuSans-66" transform="translate(661.365234 0)"/>
    <use xlink:href="#DejaVuSans-6f" transform="translate(696.570312 0)"/>
    <use xlink:href="#DejaVuSans-72" transform="translate(757.751953 0)"/>
    <use xlink:href="#DejaVuSans-6d" transform="translate(797.115234 0)"/>
    <use xlink:href="#DejaVuSans-61" transform="translate(894.527344 0)"/>
    <use xlink:href="#DejaVuSans-6e" transform="translate(955.806641 0)"/>
    <use xlink:href="#DejaVuSans-63" transform="translate(1019.185547 0)"/>
    <use xlink:href="#DejaVuSans-65" transform="translate(1074.166016 0)"/>
    <use xlink:href="#DejaVuSans-20" transform="translate(1135.689453 0)"/>
    <use xlink:href="#DejaVuSans-28" transform="translate(1167.476562 0)"/>
    <use xlink:href="#DejaVuSans-6d" transform="translate(1206.490234 0)"/>
    <use xlink:href="#DejaVuSans-65" transform="translate(1303.902344 0)"/>
    <use xlink:href="#DejaVuSans-61" transform="translate(1365.425781 0)"/>
    <use xlink:href="#DejaVuSans-6e" transform="translate(1426.705078 0)"/>
    <use xlink:href="#DejaVuSans-20" transform="translate(1490.083984 0)"/>
    <use xlink:href="#DejaVuSans-b1" transform="translate(1521.871094 0)"/>
    <use xlink:href="#DejaVuSans-20" transform="translate(1605.660156 0)"/>
    <use xlink:href="#DejaVuSans-72" transform="translate(1637.447266 0)"/>
    <use xlink:href="#DejaVuSans-61" transform="translate(1678.560547 0)"/>
    <use xlink:href="#DejaVuSans-6e" transform="translate(1739.839844 0)"/>
    <use xlink:href="#DejaVuSans-67" transform="translate(1803.21875 0)"/>
    <use xlink:href="#DejaVuSans-65" transform="translate(1866.695312 0)"/>
    <use xlink:href="#DejaVuSans-29" transform="translate(1928.21875 0)"/>
   </g>
  </g>
  <g id="text_9">
   <!-- Model -->
   <g transform="translate(233.684234 338.704344) scale(0.11 -0.11)">
    <use xlink:href="#DejaVuSans-4d"/>
    <use xlink:href="#DejaVuSans-6f" transform="translate(86.279297 0)"/>
    <use xlink:href="#DejaVuSans-64" transform="translate(147.460938 0)"/>
    <use xlink:href="#DejaVuSans-65" transform="translate(210.9375 0)"/>
    <use xlink:href="#DejaVuSans-6c" transform="translate(272.460938 0)"/>
   </g>
  </g>
  <g id="text_10">
   <!-- ROC-AUC -->
   <g transform="translate(12.966281 181.933524) rotate(-90) scale(0.11 -0.11)">
    <defs>
     <path id="DejaVuSans-4f" d="M 2522 4238  Q 1834 4238 1429 3725  Q 1025 3213 1025 2328  Q 1025 1447 1429 934  Q 1834 422 2522 422  Q 3209 422 3611 934  Q 4013 1447 4013 2328  Q 4013 3213 3611 3725  Q 3209 4238 2522 4238  z M 2522 4750  Q 3503 4750 4090 4092  Q 4678 3434 4678 2328  Q 4678 1225 4090 567  Q 3503 -91 2522 -91  Q 1538 -91 948 565  Q 359 1222 359 2328  Q 359 3434 948 4092  Q 1538 4750 2522 4750  z " transform="scale(0.015625)"/>
     <path id="DejaVuSans-2d" d="M 313 2009  L 1997 2009  L 1997 1497  L 313 1497  L 313 2009  z " transform="scale(0.015625)"/>
     <path id="DejaVuSans-41" d="M 2188 4044  L 1331 1722  L 3047 1722  L 2188 4044  z M 1831 4666  L 2547 4666  L 4325 0  L 3669 0  L 3244 1197  L 1141 1197  L 716 0  L 50 0  L 1831 4666  z " transform="scale(0.015625)"/>
     <path id="DejaVuSans-55" d="M 556 4666  L 1191 4666  L 1191 1831  Q 1191 1081 1462 751  Q 1734 422 2344 422  Q 2950 422 3222 751  Q 3494 1081 3494 1831  L 3494 4666  L 4128 4666  L 4128 1753  Q 4128 841 3676 375  Q 3225 -91 2344 -91  Q 1459 -91 1007 375  Q 556 841 556 1753  L 556 4666  z " transform="scale(0.015625)"/>
    </defs>
    <use xlink:href="#DejaVuSans-52"/>
    <use xlink:href="#DejaVuSans-4f" transform="translate(69.482422 0)"/>
    <use xlink:href="#DejaVuSans-43" transform="translate(148.193359 0)"/>
    <use xlink:href="#DejaVuSans-2d" transform="translate(218.017578 0)"/>
    <use xlink:href="#DejaVuSans-41" transform="translate(251.851562 0)"/>
    <use xlink:href="#DejaVuSans-55" transform="translate(320.259766 0)"/>
    <use xlink:href="#DejaVuSans-43" transform="translate(393.453125 0)"/>
   </g>
  </g>
 </g>
 <defs>
  <clipPath id="p36a4428dd9">
   <rect x="44.205688" y="21.991125" width="411.986312" height="268.923861"/>
  </clipPath>
 </defs>
</svg>